<svg width="20" height="16" viewBox="0 0 20 16" fill="none" xmlns="http://www.w3.org/2000/svg">
<path id="Vector" d="M15.2507 5.99931H10.5007V7.74931C10.5007 8.98993 9.49132 9.99931 8.2507 9.99931C7.01007 9.99931 6.0007 8.98993 6.0007 7.74931V3.94932L3.97258 5.16806C3.36946 5.52744 3.00071 6.18056 3.00071 6.88056V8.35868L0.500712 9.80243C0.0225877 10.0774 -0.143037 10.6899 0.135088 11.1681L2.63508 15.4993C2.91008 15.9774 3.52258 16.1399 4.00071 15.8649L7.23195 13.9993H11.5007C12.6038 13.9993 13.5007 13.1024 13.5007 11.9993H14.0007C14.5538 11.9993 15.0007 11.5524 15.0007 10.9993V8.99931H15.2507C15.6663 8.99931 16.0007 8.66493 16.0007 8.24931V6.74931C16.0007 6.33369 15.6663 5.99931 15.2507 5.99931ZM19.8663 4.83056L17.3663 0.499323C17.0913 0.0211989 16.4788 -0.141301 16.0007 0.133699L12.7694 1.99932H9.5757C9.2007 1.99932 8.83507 2.10557 8.51632 2.30244L7.46945 2.95557C7.1757 3.13682 7.0007 3.45869 7.0007 3.80244V7.74931C7.0007 8.43993 7.56007 8.99931 8.2507 8.99931C8.94132 8.99931 9.5007 8.43993 9.5007 7.74931V4.99931H15.2507C16.2163 4.99931 17.0007 5.78369 17.0007 6.74931V7.63993L19.5007 6.19619C19.9788 5.91806 20.1413 5.30869 19.8663 4.83056Z" fill="#999999"/>
</svg>
