<svg width="24" height="22" viewBox="0 0 24 22" fill="none" xmlns="http://www.w3.org/2000/svg">
<path id="Vector" d="M13.7958 19.9592L12.6066 21.0467C12.1031 21.5071 11.2889 21.5071 10.7908 21.0467L0.377636 11.5288C-0.125879 11.0683 -0.125879 10.3237 0.377636 9.86816L10.7908 0.345349C11.2943 -0.115116 12.1085 -0.115116 12.6066 0.345349L13.7958 1.43283C14.3047 1.89819 14.2939 2.65747 13.7744 3.11304L7.31972 8.73659H22.7144C23.4268 8.73659 24 9.26074 24 9.91225V11.4798C24 12.1313 23.4268 12.6554 22.7144 12.6554H7.31972L13.7744 18.279C14.2993 18.7346 14.31 19.4938 13.7958 19.9592Z" fill="white"/>
</svg>
