<svg width="20" height="18" viewBox="0 0 20 18" fill="none" xmlns="http://www.w3.org/2000/svg">
<path id="Vector" d="M16.25 0.625C16.25 0.279687 15.9703 0 15.625 0H13.125C12.7797 0 12.5 0.279687 12.5 0.625V2.5H16.25V0.625ZM2.49648 4.99961C2.39844 8.66563 0.135156 9.46172 0 14.5312V16.25C0 16.9402 0.559766 17.5 1.25 17.5H5C5.69023 17.5 6.25 16.9402 6.25 16.25V10H7.5V3.75H3.74375C3.05508 3.75 2.51523 4.31133 2.49648 4.99961ZM17.5035 4.99961C17.4848 4.31133 16.9449 3.75 16.2563 3.75H12.5V10H13.75V16.25C13.75 16.9402 14.3098 17.5 15 17.5H18.75C19.4402 17.5 20 16.9402 20 16.25V14.5312C19.8648 9.46172 17.6016 8.66563 17.5035 4.99961ZM6.875 0H4.375C4.02969 0 3.75 0.279687 3.75 0.625V2.5H7.5V0.625C7.5 0.279687 7.22031 0 6.875 0ZM8.75 10H11.25V3.75H8.75V10Z" fill="#999999"/>
</svg>
