<svg width="21" height="20" viewBox="0 0 21 20" fill="none" xmlns="http://www.w3.org/2000/svg">
<g id="user-alt" clip-path="url(#clip0_1308_1877)">
<path id="Vector" d="M6.23584 10H5.61084C4.22998 10 3.11084 11.1211 3.11084 12.5047V14.9953C3.11084 16.3785 4.22998 17.5 5.61084 17.5H6.23584C6.92607 17.5 7.48584 16.9391 7.48584 16.2477V11.2523C7.48584 10.5605 6.92607 10 6.23584 10ZM14.3608 10H13.7358C13.0456 10 12.4858 10.5605 12.4858 11.2523V16.2477C12.4858 16.9391 13.0456 17.5 13.7358 17.5H14.3608C15.7417 17.5 16.8608 16.3785 16.8608 14.9953V12.5047C16.8608 11.1215 15.7417 10 14.3608 10ZM9.98584 0C4.39639 0 0.164355 4.65352 -0.0141602 10V14.375C-0.0141602 14.7203 0.265527 15 0.61084 15H1.23584C1.58115 15 1.86084 14.7203 1.86084 14.375V10C1.86084 5.5207 5.50654 1.88281 9.98584 1.88203C14.4651 1.88281 18.1108 5.5207 18.1108 10V14.375C18.1108 14.7203 18.3905 15 18.7358 15H19.3608C19.7062 15 19.9858 14.7203 19.9858 14.375V10C19.8073 4.65352 15.5753 0 9.98584 0Z" fill="#999999"/>
</g>
<defs>
<clipPath id="clip0_1308_1877">
<rect width="20.634" height="20" fill="white" transform="translate(-0.50708)"/>
</clipPath>
</defs>
</svg>
