<svg width="22" height="20" viewBox="0 0 22 20" fill="none" xmlns="http://www.w3.org/2000/svg">
<g id="user-alt" clip-path="url(#clip0_1308_1884)">
<path id="Vector" d="M10.8241 11.25C14.028 11.25 16.6274 8.73047 16.6274 5.625C16.6274 2.51953 14.028 0 10.8241 0C7.62017 0 5.02077 2.51953 5.02077 5.625C5.02077 8.73047 7.62017 11.25 10.8241 11.25ZM15.9826 12.5H13.762C12.8673 12.8984 11.8719 13.125 10.8241 13.125C9.77626 13.125 8.78486 12.8984 7.88616 12.5H5.66558C2.81632 12.5 0.50708 14.7383 0.50708 17.5V18.125C0.50708 19.1602 1.37355 20 2.44152 20H19.2066C20.2746 20 21.1411 19.1602 21.1411 18.125V17.5C21.1411 14.7383 18.8319 12.5 15.9826 12.5Z" fill="#999999"/>
</g>
<defs>
<clipPath id="clip0_1308_1884">
<rect width="20.634" height="20" fill="white" transform="translate(0.50708)"/>
</clipPath>
</defs>
</svg>
