<svg width="20" height="18" viewBox="0 0 20 18" fill="none" xmlns="http://www.w3.org/2000/svg">
<path id="Vector" d="M10 0C7.58368 0 5.625 1.95868 5.625 4.375C5.625 6.32847 8.48438 9.88889 9.57986 11.1812C9.80174 11.4431 10.1986 11.4431 10.4201 11.1812C11.5156 9.88889 14.375 6.32847 14.375 4.375C14.375 1.95868 12.4163 0 10 0ZM10 5.83333C9.19444 5.83333 8.54167 5.18056 8.54167 4.375C8.54167 3.56944 9.19444 2.91667 10 2.91667C10.8056 2.91667 11.4583 3.56944 11.4583 4.375C11.4583 5.18056 10.8056 5.83333 10 5.83333ZM0.698611 7.49826C0.492423 7.58073 0.31567 7.72308 0.191149 7.90696C0.066628 8.09083 4.93822e-05 8.30779 0 8.52986L0 17.2215C0 17.6146 0.396875 17.8833 0.761806 17.7375L5.55556 15.5556V7.4625C5.24861 6.90764 4.99757 6.36736 4.81771 5.85069L0.698611 7.49826ZM10 12.4885C9.51146 12.4885 9.04931 12.274 8.73229 11.8997C8.04965 11.0941 7.32361 10.1767 6.66667 9.23576V15.5552L13.3333 17.7774V9.23611C12.6764 10.1767 11.9507 11.0944 11.2677 11.9C10.9507 12.274 10.4885 12.4885 10 12.4885ZM19.2382 5.59583L14.4444 7.77778V17.7778L19.3014 15.8351C19.5076 15.7526 19.6844 15.6103 19.8089 15.4264C19.9334 15.2425 20 15.0256 20 14.8035V6.11181C20 5.71875 19.6031 5.45 19.2382 5.59583Z" fill="#999999"/>
</svg>
